<svg width="31" height="31" viewBox="0 0 31 31" fill="none" xmlns="http://www.w3.org/2000/svg">
<path d="M20.3998 17.4479C19.6597 17.0102 18.3667 15.9397 17.1619 17.0855C16.8776 17.3747 16.6893 17.5683 16.5677 17.6927C15.4732 17.1746 13.5272 15.2968 13.0226 14.1119C14.8106 12.4876 13.983 11.9083 12.2245 8.57061C11.924 8.05252 11.437 7.70874 10.8425 7.70874C10.1144 7.70874 9.82986 8.06726 8.7898 9.1191C7.48754 10.4357 6.72328 10.8493 7.21313 13.0803C8.60709 19.4309 17.9098 25.7912 20.5443 22.948C22.6961 20.8121 23.111 20.6097 22.985 19.6437C22.8262 18.6819 22.0878 18.4461 20.3998 17.4479ZM19.2475 21.7446C19.0971 21.9116 18.1962 21.9666 16.7018 21.3467C13.868 20.1715 10.9284 17.0873 9.72388 14.7849C9.34025 14.0515 8.49189 11.877 8.96284 11.4528C9.15546 11.2702 10.4506 9.9485 10.7819 9.62821C11.6639 11.299 12.0934 12.08 12.236 12.3983C11.9823 12.7897 11.1711 13.0962 11.1711 14.0564C11.528 15.9323 13.9701 18.2313 15.4297 19.0867C16.9195 19.9599 17.3962 19.3761 17.9388 18.8203C18.4234 18.3243 18.3819 18.3545 18.4324 18.3494L21.0975 19.9147C20.7851 20.2412 19.4632 21.518 19.2475 21.7446Z" fill="#1E1E1E"/>
<path d="M15.1 0.5C6.75348 0.5 0 7.25037 0 15.5905C0 23.9317 6.75463 30.681 15.1 30.681C23.4465 30.681 30.2 23.9306 30.2 15.5905C30.2 7.24922 23.4454 0.5 15.1 0.5ZM15.1 28.9125C7.73156 28.9125 1.76953 22.9531 1.76953 15.5905C1.76953 8.22669 7.73271 2.26842 15.1 2.26842C22.4684 2.26842 28.4305 8.22784 28.4305 15.5905C28.4305 22.9543 22.4673 28.9125 15.1 28.9125Z" fill="#1E1E1E"/>
</svg>
