<svg width="20" height="20" viewBox="0 0 20 20" fill="none" xmlns="http://www.w3.org/2000/svg">
<path d="M13.1905 10C13.1905 11.7537 11.762 13.1754 10 13.1754C8.23796 13.1754 6.80952 11.7537 6.80952 10C6.80952 8.2463 8.23796 6.82465 10 6.82465C11.762 6.82465 13.1905 8.2463 13.1905 10Z" fill="white"/>
<path fill-rule="evenodd" clip-rule="evenodd" d="M2.28571 0C1.02334 0 0 1.0185 0 2.27488V17.7251C0 18.9815 1.02334 20 2.28571 20H17.7143C18.9767 20 20 18.9815 20 17.7251V2.27488C20 1.0185 18.9767 0 17.7143 0H2.28571ZM16.3274 4.82228C16.3274 5.47664 15.7944 6.00711 15.1369 6.00711C14.4794 6.00711 13.9464 5.47664 13.9464 4.82228C13.9464 4.16791 14.4794 3.63744 15.1369 3.63744C15.7944 3.63744 16.3274 4.16791 16.3274 4.82228ZM14.8452 10C14.8452 12.6633 12.676 14.8223 10 14.8223C7.32403 14.8223 5.15476 12.6633 5.15476 10C5.15476 7.33673 7.32403 5.17773 10 5.17773C12.676 5.17773 14.8452 7.33673 14.8452 10Z" fill="white"/>
</svg>
