<svg width="26" height="26" viewBox="0 0 26 26" fill="none" xmlns="http://www.w3.org/2000/svg">
<path d="M13 0C20.1727 0 26 5.82728 26 13C26 20.1727 20.1727 26 13 26C5.82728 26 0 20.1727 0 13C0 5.82728 5.82728 0 13 0ZM13.5909 1.25568V6.79545H17.7734C17.524 5.94948 17.2257 5.16997 16.8871 4.48722C15.9737 2.64551 14.8136 1.53061 13.5909 1.25568ZM12.4091 1.25568C11.1864 1.53061 10.0263 2.64551 9.11294 4.48722C8.77429 5.16997 8.476 5.94948 8.22658 6.79545H12.4091V1.25568ZM16.4162 1.68963C16.9929 2.31526 17.5039 3.08249 17.9396 3.96094C18.3587 4.80586 18.7155 5.76099 19.0014 6.79545H23.0639C21.5643 4.36641 19.2084 2.52956 16.4162 1.68963ZM9.58381 1.68963C6.79164 2.52956 4.43566 4.36641 2.93608 6.79545H6.99858C7.28446 5.76099 7.64131 4.80586 8.06035 3.96094C8.49606 3.08249 9.00705 2.31526 9.58381 1.68963ZM23.701 7.97727H19.2876C19.5789 9.35099 19.751 10.8457 19.7862 12.4091H24.7997C24.7222 10.8282 24.3385 9.33423 23.701 7.97727ZM18.0781 7.97727H13.5909V12.4091H18.6044C18.5669 10.8309 18.3819 9.33186 18.0781 7.97727ZM12.4091 7.97727H7.92187C7.61806 9.33186 7.4331 10.8309 7.39558 12.4091H12.4091V7.97727ZM6.71237 7.97727H2.29899C1.66146 9.33423 1.27781 10.8282 1.20028 12.4091H6.21376C6.24895 10.8457 6.42114 9.35099 6.71237 7.97727ZM24.7997 13.5909H19.7862C19.7515 15.1569 19.5794 16.6487 19.2876 18.0227H23.701C24.3364 16.6677 24.7223 15.1688 24.7997 13.5909ZM18.6044 13.5909H13.5909V18.0227H18.0781C18.382 16.6666 18.5674 15.1709 18.6044 13.5909ZM12.4091 13.5909H7.39558C7.4326 15.1709 7.618 16.6666 7.92187 18.0227H12.4091V13.5909ZM6.21376 13.5909H1.20028C1.27766 15.1688 1.66359 16.6677 2.29899 18.0227H6.71237C6.42061 16.6487 6.24851 15.1569 6.21376 13.5909ZM23.0639 19.2045H19.0014C18.7155 20.2375 18.3587 21.1849 17.9396 22.0298C17.5039 22.9083 16.993 23.6923 16.4162 24.3196C19.2084 23.4797 21.5643 21.6336 23.0639 19.2045ZM17.7734 19.2045H13.5909V24.7535C14.8136 24.4786 15.9737 23.3545 16.8871 21.5128C17.2268 20.8277 17.5235 20.0538 17.7734 19.2045ZM12.4091 19.2045H8.22658C8.4765 20.0538 8.77317 20.8277 9.11294 21.5128C10.0263 23.3545 11.1864 24.4786 12.4091 24.7535V19.2045ZM6.99858 19.2045H2.93608C4.43566 21.6336 6.79164 23.4797 9.58381 24.3196C9.00699 23.6923 8.49609 22.9083 8.06035 22.0298C7.64131 21.1849 7.28446 20.2375 6.99858 19.2045Z" fill="white"/>
</svg>
