<svg width="81" height="111" viewBox="0 0 81 111" fill="none" xmlns="http://www.w3.org/2000/svg">
<path d="M0 -17.3051H80.4583V104.605C80.4583 106.299 79.7862 107.924 78.5896 109.123C77.393 110.322 75.7696 110.997 74.0757 111H6.3947C4.69872 111 3.0722 110.326 1.87296 109.127C0.673725 107.928 0 106.301 0 104.605V-17.3051Z" fill="#C90C0F"/>
<path d="M8.42649 52.5588C9.54887 50.7718 10.7797 49.0553 12.1121 47.4189C13.4213 45.8315 14.7668 44.2805 16.1939 42.8171C19.0156 39.872 22.0701 37.1592 25.3278 34.7051C28.5593 32.2469 31.9794 30.047 35.5563 28.1259C37.3069 27.11 39.1664 26.3118 40.9986 25.429C42.8309 24.5461 44.7417 23.9172 46.6042 23.1432C46.8847 23.0358 47.1958 23.0401 47.4732 23.1552C47.7507 23.2703 47.9734 23.4874 48.0955 23.7619C48.2176 24.0363 48.2298 24.3472 48.1295 24.6303C48.0293 24.9135 47.8242 25.1474 47.5566 25.2838L47.4568 25.3292C45.6911 26.1727 43.88 26.9196 42.1536 27.8357C40.4272 28.7518 38.6947 29.6498 37.062 30.7201C33.7359 32.7473 30.5737 35.032 27.6045 37.5532C24.6428 40.049 21.8865 42.7789 19.3625 45.7166C18.0926 47.1679 16.9104 48.6887 15.7736 50.2307C14.6764 51.7417 13.6669 53.3145 12.7501 54.9413L12.7017 55.029C12.5508 55.3207 12.3432 55.5794 12.091 55.7899C11.8389 56.0004 11.5473 56.1585 11.2334 56.255C10.9194 56.3515 10.5894 56.3844 10.2625 56.3518C9.93571 56.3191 9.61866 56.2217 9.32996 56.0651C9.04125 55.9084 8.78668 55.6958 8.58113 55.4396C8.37558 55.1834 8.22319 54.8888 8.13287 54.5731C8.04255 54.2573 8.01611 53.9266 8.05511 53.6005C8.0941 53.2744 8.19775 52.9593 8.35997 52.6737L8.42649 52.5588Z" fill="white"/>
<path d="M15.444 70.5698C15.1896 70.5535 14.9465 70.4584 14.7486 70.2977C14.593 70.1184 14.5091 69.888 14.5128 69.6507C14.498 69.578 14.5028 69.5028 14.5267 69.4326C14.5506 69.3625 14.5927 69.3 14.6488 69.2515C14.8847 69.1237 15.1418 69.0397 15.4077 69.0036C15.4218 68.8021 15.443 68.3667 15.4712 67.6975C15.4994 67.0283 15.5196 66.2361 15.5317 65.321C15.5498 64.414 15.5649 63.4404 15.5831 62.4215C15.6012 61.4025 15.6133 60.4381 15.6315 59.534C15.6496 58.63 15.6617 57.8499 15.6708 57.1938C15.6798 56.5377 15.6889 56.1205 15.707 55.9391C15.705 55.8796 15.7149 55.8203 15.7362 55.7648C15.7575 55.7092 15.7897 55.6585 15.831 55.6156C15.9363 55.555 16.0578 55.5286 16.1787 55.54C16.4121 55.5141 16.6484 55.5384 16.8716 55.6114C17.0948 55.6845 17.2998 55.8044 17.4728 55.9633C17.6408 56.1277 17.7722 56.3259 17.8582 56.5448C17.9441 56.7637 17.9828 56.9983 17.9716 57.2331C17.9716 57.4146 17.9716 57.7955 17.9716 58.376C17.9716 58.9565 17.9535 59.6338 17.9444 60.4048C17.9354 61.1758 17.9293 61.9982 17.9202 62.8689C17.9112 63.7397 17.9051 64.553 17.8961 65.3059C17.887 66.0587 17.8961 66.7088 17.8961 67.25V68.2054C17.8971 68.2504 17.9089 68.2944 17.9304 68.3339C17.952 68.3733 17.9827 68.4071 18.02 68.4322C18.0534 68.4618 18.093 68.4837 18.1358 68.4963C18.1787 68.5088 18.2238 68.5117 18.2679 68.5047C18.6489 68.4705 19.0389 68.4463 19.438 68.4322C19.8371 68.414 20.2272 68.3899 20.6081 68.3566C20.7412 68.3566 20.8077 68.3112 20.8077 68.2175V66.8993C20.8077 66.3611 20.8077 65.7352 20.8077 65.0217C20.8077 64.3081 20.8077 63.5523 20.8077 62.7571C20.8077 61.9619 20.8712 57.6534 20.8802 56.9731C20.8893 56.2928 20.8802 55.7153 20.8802 55.2437C20.8718 54.9652 20.8808 54.6865 20.9075 54.4092C20.9191 54.345 20.9454 54.2844 20.9842 54.232C21.023 54.1796 21.0733 54.1368 21.1312 54.1068C21.2146 54.0584 21.3074 54.0285 21.4033 54.0192C21.8542 54.0788 22.2806 54.2596 22.6369 54.5422C22.8213 54.6737 22.9739 54.8449 23.0833 55.0433C23.1926 55.2416 23.2561 55.462 23.2688 55.6881C23.287 55.8544 23.299 56.314 23.3081 57.0669C23.3172 57.8197 23.2628 62.3096 23.2718 63.389C23.2809 64.4684 23.2718 65.6234 23.2718 66.86V70.3763C23.2718 71.4889 23.2718 72.4726 23.2718 73.3272C23.2718 74.1799 23.2718 74.7573 23.2718 75.0567C23.279 75.2364 23.2449 75.4153 23.1721 75.5797C23.131 75.6507 23.0731 75.7104 23.0035 75.7536C22.9339 75.7969 22.8547 75.8223 22.773 75.8277C22.5789 75.8606 22.3801 75.8524 22.1894 75.8035C21.9959 75.7506 21.8143 75.6613 21.6543 75.5404C21.4925 75.4207 21.3533 75.2733 21.2431 75.105C21.1359 74.9411 21.0714 74.753 21.0556 74.5578C21.0224 74.2554 20.9951 73.8956 20.9679 73.4633C20.9407 73.0309 20.9196 72.6076 20.8954 72.1934C20.8712 71.7792 20.85 71.4103 20.8319 71.0868C20.8137 70.7633 20.8077 70.5668 20.8077 70.5003C20.8107 70.3694 20.7668 70.2417 20.6837 70.1405C20.5721 70.0734 20.439 70.0517 20.3118 70.08C20.0095 70.1132 19.6769 70.1374 19.3534 70.1526C19.0299 70.1677 18.7094 70.1949 18.3949 70.2281C18.2734 70.2359 18.1567 70.279 18.0593 70.3521C18.0063 70.4435 17.984 70.5495 17.9958 70.6545C17.9958 71.0687 17.9958 71.5887 17.9958 72.2085C17.9958 72.8283 17.9777 73.4451 17.9716 74.0529C17.9656 74.6606 17.9444 75.1957 17.9202 75.6674C17.8961 76.1391 17.8749 76.4354 17.8598 76.5533C17.8447 76.6712 17.7933 76.7105 17.76 76.777C17.735 76.8137 17.7017 76.8441 17.6629 76.8656C17.624 76.8871 17.5806 76.8993 17.5363 76.901C17.3263 76.9383 17.1113 76.9383 16.9013 76.901C16.6636 76.8612 16.4357 76.776 16.2301 76.65C16.0233 76.5272 15.8408 76.3673 15.6919 76.1784C15.5443 75.9907 15.4653 75.7581 15.4682 75.5193V71.5887C15.4682 71.1352 15.4621 70.8026 15.444 70.5698Z" fill="white"/>
<path d="M34.4195 62.9657C34.4195 63.2469 34.3953 63.6641 34.3469 64.2204C34.2986 64.7768 34.2079 65.3905 34.0839 66.0617C33.9511 66.7755 33.7815 67.4819 33.5759 68.1782C33.3687 68.8818 33.0975 69.5649 32.7656 70.2191C32.4628 70.8198 32.068 71.3697 31.5956 71.8487C31.1613 72.2931 30.6007 72.5929 29.9901 72.7074C29.6016 72.8087 29.1949 72.8185 28.802 72.7362C28.4091 72.6538 28.0406 72.4815 27.7255 72.2327C27.0547 71.6527 26.5489 70.9059 26.2591 70.0679C25.8636 68.9967 25.6085 67.8788 25.5002 66.742C25.358 65.4369 25.3206 64.1226 25.3883 62.8115C25.4373 61.6275 25.5829 60.4494 25.8237 59.2891C26.0132 58.363 26.2751 57.4532 26.6068 56.568C26.8556 55.897 27.177 55.2552 27.5652 54.6541C27.8359 54.2311 28.1578 53.8431 28.5237 53.4991C28.6525 53.3876 28.79 53.2865 28.9349 53.1968C29.0921 53.0963 29.2698 53.0323 29.4549 53.0093C29.6716 52.989 29.8899 53.0233 30.0898 53.1091C30.3711 53.2365 30.6186 53.428 30.8125 53.6684C30.9207 53.8029 31.069 53.8993 31.2358 53.9436C31.4042 53.9796 31.5749 54.0038 31.7467 54.0161C31.9561 54.0374 32.164 54.0707 32.3696 54.1159C32.6361 54.186 32.8908 54.295 33.1254 54.4394C33.3582 54.5724 33.5578 54.9081 33.7301 55.4493C33.9207 56.0968 34.0622 56.7578 34.1534 57.4266C34.2762 58.2928 34.3549 59.1647 34.3893 60.0389C34.4255 61.0034 34.4376 61.9679 34.4195 62.9657ZM32.2547 64.16C32.2728 63.8758 32.2879 63.4585 32.3061 62.9022C32.3242 62.3459 32.3212 61.7321 32.3061 61.0609C32.291 60.3897 32.2456 59.6973 32.1821 58.9837C32.1233 58.3259 32.0223 57.6725 31.8798 57.0275C31.7748 56.5184 31.603 56.0253 31.3688 55.5611C31.303 55.3974 31.1966 55.2532 31.0596 55.1421C30.9226 55.031 30.7595 54.9567 30.5857 54.9262C30.371 54.9111 30.1533 55.0562 29.9387 55.3616C29.689 55.7334 29.4859 56.1345 29.334 56.5559C29.1526 57.0457 28.9782 57.5889 28.8109 58.1855C28.6446 58.7902 28.5086 59.3435 28.3876 59.8666C28.2667 60.3897 28.179 60.8492 28.1034 61.2453L27.9674 61.9679C27.8995 62.3297 27.853 62.6952 27.8283 63.0624C27.789 63.5613 27.7618 64.1207 27.7557 64.7435C27.7497 65.3663 27.7557 66.0073 27.792 66.6725C27.8193 67.2905 27.89 67.9058 28.0036 68.5138C28.0893 69.0066 28.2356 69.487 28.439 69.9439C28.494 70.1059 28.5891 70.2512 28.7155 70.3665C28.8419 70.4817 28.9953 70.5631 29.1616 70.603C29.3072 70.6333 29.4581 70.6252 29.5996 70.5796C29.7411 70.5341 29.8684 70.4525 29.9689 70.343C30.257 70.062 30.5007 69.7389 30.6915 69.3846C30.9295 68.9491 31.1317 68.4951 31.2962 68.027C31.4776 67.5231 31.6349 67.0192 31.7679 66.5153C31.9009 66.0164 32.0067 65.5568 32.0914 65.1335C32.1644 64.8124 32.2189 64.4873 32.2547 64.16Z" fill="white"/>
<path d="M39.248 59.5793C39.2329 59.6307 39.1966 59.8454 39.1361 60.2264C39.0756 60.6073 39.0031 61.0971 38.9124 61.6958C38.8217 62.2945 38.7219 62.9596 38.61 63.6974C38.4982 64.4351 38.3954 65.191 38.2865 65.962L37.9842 68.2145C37.8844 68.9461 37.7907 69.5992 37.709 70.1828C37.6274 70.7663 37.5609 71.2289 37.5095 71.5857C37.4581 71.9424 37.4339 72.1299 37.4339 72.145C37.432 72.2267 37.4031 72.3054 37.3517 72.3689C37.3003 72.4324 37.2292 72.477 37.1497 72.4957C36.9618 72.5399 36.7662 72.5399 36.5782 72.4957C36.3746 72.4562 36.1824 72.3714 36.0159 72.2478C35.9445 72.2042 35.8848 72.1441 35.8416 72.0725C35.7984 72.001 35.7732 71.92 35.7679 71.8366C35.7679 71.6371 35.8314 71.2319 35.904 70.6423C35.9766 70.0527 36.0794 69.318 36.2063 68.4654C36.3333 67.6128 36.4724 66.6694 36.6296 65.6384C36.7869 64.6074 36.9501 63.5734 37.1134 62.5303C37.2767 61.4872 37.449 60.4683 37.6244 59.4796C37.7997 58.4909 37.966 57.6141 38.1232 56.8431C38.2805 56.0721 38.4256 55.4432 38.5586 54.9625C38.6917 54.4817 38.7975 54.2247 38.8821 54.1915C39.0387 54.1361 39.2009 54.0985 39.3659 54.0796C39.5564 54.0554 39.7438 54.0343 39.9252 54.0191C40.0953 54.0058 40.2662 54.0058 40.4362 54.0191C40.5489 54.0215 40.6612 54.0336 40.7718 54.0554C40.8716 54.0887 40.9714 54.3578 41.0742 54.8748C41.177 55.3918 41.2677 56.0298 41.3765 56.7917C41.4854 57.5536 41.5489 58.3911 41.6245 59.2921C41.7 60.1931 41.7696 61.0488 41.8361 61.844C41.9026 62.6391 41.957 63.3285 41.9994 63.909C42.0417 64.4895 42.0689 64.8402 42.084 64.9551C42.1354 64.7042 42.2352 64.2779 42.3864 63.6732C42.5375 63.0685 42.7069 62.3761 42.8973 61.596C43.0878 60.816 43.2964 59.9905 43.5202 59.1198C43.7439 58.249 43.9556 57.4327 44.1551 56.6677C44.3547 55.9028 44.53 55.2406 44.6873 54.6783C44.7837 54.2969 44.9049 53.9222 45.0501 53.5565C45.098 53.4254 45.1787 53.3087 45.2846 53.2176C45.3905 53.1266 45.5179 53.0642 45.6548 53.0365C45.7919 53.0026 45.9352 53.0027 46.0723 53.037C46.2093 53.0712 46.3359 53.1386 46.4409 53.233C46.664 53.4093 46.8535 53.6244 47.0002 53.868C47.1473 54.1323 47.2359 54.4251 47.2603 54.7266C47.2784 54.9413 47.3207 55.3313 47.3872 55.936C47.4538 56.5407 47.5293 57.2271 47.62 58.0525C47.7108 58.8779 47.8196 59.7608 47.9466 60.7404C48.0736 61.72 48.1915 62.7026 48.3064 63.6883C48.4213 64.6739 48.5392 65.6384 48.6541 66.5757C48.769 67.513 48.8748 68.3535 48.9564 69.1003C49.0381 69.8472 49.1167 70.4609 49.1681 70.9417C49.2195 71.4224 49.2437 71.7066 49.2437 71.7882C49.2437 71.9545 49.2437 72.1238 49.2437 72.2992C49.2437 72.4746 49.1378 72.6016 48.9081 72.6832C48.7788 72.7397 48.6371 72.7615 48.4969 72.7467C48.3101 72.735 48.1278 72.6846 47.9617 72.5985C47.7604 72.489 47.5858 72.3362 47.4507 72.1511C47.2738 71.8936 47.159 71.5986 47.1151 71.2894C47.1151 71.2228 47.0667 70.987 47.0153 70.6061C46.9639 70.2251 46.9005 69.7232 46.8158 69.1245C46.7311 68.5259 46.6435 67.8607 46.5437 67.123C46.4439 66.3852 46.3411 65.6324 46.2413 64.8705C46.1416 64.1086 46.0297 63.3587 45.939 62.6301C45.8483 61.9014 45.7515 61.2483 45.679 60.6769C45.6064 60.1054 45.5399 59.6398 45.4915 59.283C45.4733 59.0942 45.44 58.9072 45.3917 58.7237C45.3675 59.0201 45.3261 59.3149 45.2678 59.6066C45.1831 60.0782 45.0712 60.6648 44.9322 61.3602C44.7931 62.0556 44.6298 62.8266 44.4817 63.6641C44.3335 64.5016 44.1793 65.327 44.01 66.1403C43.8407 66.9537 43.7076 67.7186 43.5988 68.4412C43.4899 69.1638 43.3992 69.7564 43.3509 70.2221C43.3357 70.4094 43.2939 70.5937 43.2269 70.7693C43.1146 70.91 42.9561 71.0065 42.7794 71.0414C42.5779 71.1254 42.3599 71.163 42.1419 71.1513C41.9238 71.1395 41.7112 71.0788 41.5198 70.9737C41.3284 70.8686 41.1631 70.7217 41.0362 70.5439C40.9094 70.3662 40.8242 70.1621 40.7869 69.9469C40.7537 69.7988 40.6962 69.448 40.6146 68.9008C40.533 68.3535 40.4362 67.6914 40.3274 66.9476C40.2185 66.2038 40.1067 65.3966 39.9918 64.5591C39.8769 63.7215 39.765 62.9475 39.6562 62.231C39.5473 61.5144 39.4596 60.9127 39.3931 60.4169C39.3266 59.921 39.2661 59.6307 39.248 59.5793Z" fill="white"/>
<path d="M54.3322 64.4109C54.432 64.3777 54.5922 64.3384 54.816 64.287C55.0397 64.2356 55.2846 64.1963 55.5507 64.163C55.8167 64.1298 56.0889 64.1056 56.3731 64.0874C56.6131 64.0713 56.8542 64.0794 57.0927 64.1116C57.3542 64.1283 57.5997 64.244 57.779 64.4351C57.8579 64.5316 57.9152 64.6438 57.9471 64.7643C57.9789 64.8848 57.9845 65.0107 57.9634 65.1335C57.9505 65.2905 57.9169 65.445 57.8637 65.5931C57.8567 65.625 57.8429 65.655 57.8233 65.681C57.8036 65.7071 57.7786 65.7286 57.7499 65.7441C57.7212 65.7596 57.6895 65.7687 57.6569 65.7708C57.6244 65.7729 57.5918 65.768 57.5613 65.7564C57.2886 65.7216 57.0137 65.7085 56.7389 65.7171C56.4366 65.7171 56.104 65.7534 55.7805 65.7927C55.4748 65.8324 55.1719 65.891 54.8734 65.968C54.6403 66.0236 54.411 66.0943 54.1871 66.1797C54.1871 66.3278 54.1871 66.5939 54.1629 66.9749C54.1387 67.3558 54.1206 67.7882 54.1206 68.2598C54.1206 68.7315 54.0934 69.2334 54.0934 69.7414C54.0934 70.2493 54.1115 70.7028 54.1448 71.111C54.1652 71.4383 54.2148 71.7631 54.2929 72.0816C54.3594 72.3204 54.4683 72.4172 54.6164 72.3658C54.818 72.3174 55.1203 72.2388 55.5235 72.1299L56.7329 71.8064C57.138 71.6976 57.5069 71.6159 57.8395 71.5585C58.1721 71.501 58.3716 71.5041 58.4442 71.5585C58.5986 71.6704 58.7155 71.8264 58.7798 72.006C58.8191 72.1541 58.8675 72.3476 58.9158 72.5774C59.0005 72.9432 58.8916 73.167 58.5923 73.2516L58.033 73.3756L56.9233 73.5993L55.5053 73.8715L54.0389 74.1587L52.8053 74.4066L52.0464 74.5699C51.931 74.6116 51.8063 74.6209 51.6859 74.597C51.5654 74.573 51.4538 74.5166 51.3631 74.4338C51.211 74.2445 51.1193 74.0138 51.1001 73.7717C51.0782 73.6929 51.0726 73.6104 51.0835 73.5293C51.0944 73.4483 51.1216 73.3703 51.1636 73.3C51.295 73.1917 51.4543 73.1225 51.6232 73.1005C51.7078 73.0854 51.7774 73.0702 51.8348 73.0642L52.0223 73.0279C52.0561 72.8384 52.0683 72.6457 52.0585 72.4534C52.0585 72.0725 52.0767 71.5736 52.0858 70.9598C52.0948 70.3461 52.0858 69.6416 52.0858 68.8434V66.3792C52.0858 65.5327 52.0858 64.6861 52.0858 63.8395C52.0858 62.9929 52.0858 62.2189 52.0858 61.5144V58.6633C51.9381 58.7069 51.7875 58.7402 51.6352 58.763C51.5414 58.7814 51.4449 58.7814 51.351 58.763C51.2743 58.7478 51.2045 58.7087 51.1515 58.6512C51.0815 58.5788 51.0188 58.4998 50.964 58.4153C50.8697 58.2985 50.7867 58.173 50.7161 58.0404C50.6352 57.9011 50.5761 57.7502 50.5407 57.5929C50.5096 57.4592 50.5014 57.3212 50.5166 57.1848C50.5232 57.124 50.5449 57.0659 50.5798 57.0158C50.6146 56.9656 50.6615 56.9249 50.7161 56.8975C50.9487 56.7787 51.1957 56.6903 51.4508 56.6345C51.8046 56.5438 52.2248 56.4531 52.7056 56.3624C53.1863 56.2717 53.7003 56.181 54.2506 56.0872C54.8008 55.9935 55.3269 55.9149 55.844 55.8393C56.361 55.7637 56.8266 55.7033 57.2499 55.6549L58.2567 55.5279C58.4765 55.4895 58.7022 55.503 58.9158 55.5672C59.0681 55.6216 59.1958 55.7289 59.2756 55.8696C59.3697 56.0364 59.437 56.217 59.4752 56.4047C59.5266 56.6224 59.5901 56.8643 59.6747 57.1273C59.6917 57.1737 59.6909 57.2247 59.6725 57.2705C59.654 57.3162 59.6193 57.3536 59.575 57.3753C59.4613 57.448 59.3352 57.4993 59.2031 57.5264L58.7647 57.6141C58.6709 57.6328 58.5759 57.6449 58.4804 57.6504C57.8999 57.732 57.3134 57.8046 56.7268 57.862C56.1403 57.9195 55.5507 57.989 54.9702 58.0737C54.7857 58.0752 54.605 58.1264 54.4471 58.2218C54.3587 58.381 54.3237 58.5644 54.3473 58.7449V60.1629C54.3473 60.7434 54.3473 61.33 54.3473 61.9165C54.3473 62.5031 54.3322 63.0352 54.3322 63.4978C54.3028 63.8015 54.3028 64.1073 54.3322 64.4109Z" fill="white"/>
<path d="M18.8666 84.8165C18.8484 84.8679 18.8122 85.0826 18.7547 85.4635C18.6973 85.8445 18.6217 86.3343 18.531 86.933C18.4403 87.5316 18.3405 88.1968 18.2286 88.9345C18.1168 89.6722 18.014 90.4281 17.9051 91.1991C17.7963 91.9701 17.6935 92.7109 17.6028 93.4516C17.5121 94.1924 17.4123 94.8394 17.3306 95.4199C17.249 96.0004 17.1795 96.4691 17.1311 96.8258C17.0827 97.1826 17.0555 97.367 17.0555 97.3852C17.0535 97.4665 17.0245 97.5448 16.973 97.6078C16.9216 97.6707 16.8506 97.7148 16.7713 97.7329C16.5827 97.7801 16.3854 97.7801 16.1968 97.7329C15.9943 97.6927 15.8033 97.608 15.6375 97.485C15.5662 97.4414 15.5064 97.3813 15.4632 97.3097C15.4201 97.2381 15.3948 97.1572 15.3896 97.0738C15.3896 96.8742 15.45 96.4691 15.5256 95.8795C15.6012 95.2899 15.701 94.5552 15.828 93.7026C15.955 92.8499 16.094 91.9066 16.2513 90.8786C16.4085 89.8506 16.5687 88.8105 16.735 87.7674C16.9013 86.7243 17.0706 85.7054 17.246 84.7167C17.4213 83.728 17.5846 82.8512 17.7418 82.0802C17.8991 81.3092 18.0442 80.6834 18.1802 80.2026C18.3163 79.7219 18.4191 79.4619 18.5038 79.4286C18.6607 79.3747 18.8228 79.3372 18.9875 79.3168C19.178 79.2926 19.3655 79.2714 19.5469 79.2563C19.7169 79.243 19.8878 79.243 20.0578 79.2563C20.1704 79.2602 20.2826 79.2723 20.3934 79.2926C20.4932 79.3258 20.593 79.5949 20.6958 80.115C20.7986 80.635 20.8893 81.2669 20.98 82.0288C21.0707 82.7908 21.1554 83.6283 21.231 84.5293C21.3065 85.4303 21.3761 86.2859 21.4426 87.0811C21.5091 87.8763 21.5605 88.5687 21.6028 89.1461C21.6452 89.7236 21.6754 90.0774 21.6905 90.1923C21.7419 89.9444 21.8417 89.518 21.9929 88.9103C22.144 88.3026 22.2952 87.6132 22.5038 86.8332C22.7125 86.0531 22.8999 85.2277 23.1237 84.3569C23.3474 83.4862 23.559 82.6698 23.7586 81.9049C23.9581 81.1399 24.1365 80.4778 24.2938 79.9154C24.3902 79.534 24.5114 79.1593 24.6566 78.7937C24.705 78.6628 24.7859 78.5464 24.8917 78.4555C24.9975 78.3645 25.1246 78.3019 25.2613 78.2736C25.3981 78.2395 25.5413 78.2399 25.678 78.2748C25.8146 78.3096 25.9405 78.3778 26.0444 78.4732C26.2697 78.6468 26.4605 78.8611 26.6067 79.1051C26.7538 79.3695 26.8424 79.6623 26.8668 79.9638C26.8819 80.1815 26.9242 80.5836 26.9907 81.1732C27.0572 81.7628 27.1358 82.4642 27.2266 83.2896C27.3173 84.115 27.4261 84.9979 27.5501 85.9775C27.674 86.9571 27.795 87.9398 27.9129 88.9254C28.0308 89.9111 28.1457 90.8756 28.2606 91.8129C28.3755 92.7502 28.4813 93.5907 28.5629 94.3375C28.6446 95.0843 28.7232 95.6981 28.7746 96.1788C28.826 96.6595 28.8502 96.9438 28.8502 97.0254C28.8502 97.1917 28.8502 97.361 28.8502 97.5364C28.8502 97.7117 28.7443 97.8387 28.5146 97.9234C28.3845 97.977 28.2433 97.9978 28.1034 97.9838C27.9166 97.9722 27.7344 97.9217 27.5682 97.8357C27.3661 97.7272 27.1914 97.5742 27.0572 97.3882C26.8809 97.1316 26.766 96.8377 26.7216 96.5295C26.7035 96.463 26.6702 96.2272 26.6219 95.8432C26.5735 95.4592 26.5039 94.9603 26.4223 94.3647C26.3407 93.7691 26.2469 93.0979 26.1472 92.3601C26.0474 91.6224 25.9446 90.8726 25.8448 90.1076C25.745 89.3427 25.6332 88.5959 25.5425 87.8702C25.4518 87.1446 25.355 86.4885 25.2794 85.914C25.2038 85.3396 25.1434 84.877 25.095 84.5202C25.0764 84.3314 25.043 84.1444 24.9952 83.9608C24.9712 84.2573 24.9298 84.5521 24.8712 84.8437C24.7866 85.3184 24.6747 85.9019 24.5326 86.6004C24.3905 87.2988 24.2303 88.0637 24.0851 88.9012C23.94 89.7387 23.7828 90.5642 23.6135 91.3775C23.4442 92.1908 23.3111 92.9588 23.2023 93.6784C23.0934 94.398 23.0027 94.9936 22.9543 95.4592C22.9391 95.6466 22.8974 95.8308 22.8304 96.0065C22.7181 96.1472 22.5595 96.2436 22.3829 96.2786C22.1823 96.3547 21.9681 96.3886 21.7538 96.3782C21.5394 96.3678 21.3295 96.3133 21.1372 96.2181C20.943 96.1085 20.775 95.9579 20.6449 95.7767C20.5149 95.5955 20.426 95.3881 20.3844 95.169C20.3511 95.0208 20.2937 94.6731 20.209 94.1258C20.1244 93.5786 20.0336 92.9164 19.9248 92.1696C19.816 91.4228 19.7041 90.6216 19.5892 89.7811C19.4743 88.9405 19.3594 88.1696 19.2536 87.456C19.1478 86.7425 19.0571 86.1347 18.9905 85.6419C18.924 85.1491 18.8817 84.8679 18.8666 84.8165Z" fill="white"/>
<path d="M41.8119 87.4258C41.8425 87.5257 41.8527 87.6307 41.8418 87.7346C41.8309 87.8385 41.7991 87.9391 41.7484 88.0305C41.5767 88.1709 41.3651 88.2534 41.1437 88.2663C40.8777 88.2996 40.5814 88.3449 40.2609 88.4024C39.9404 88.4598 39.641 88.5233 39.375 88.5898C39.4082 88.8922 39.4717 89.3578 39.5624 89.9958C39.6531 90.6337 39.7499 91.314 39.8497 92.0366C39.9494 92.7592 40.0432 93.4486 40.1339 94.1138C40.2246 94.7789 40.2881 95.2929 40.3213 95.6557C40.338 95.746 40.3366 95.8386 40.3175 95.9284C40.2983 96.0182 40.2616 96.1032 40.2095 96.1788C40.1347 96.2382 40.049 96.2822 39.9571 96.3082C39.8652 96.3341 39.7691 96.3415 39.6743 96.33H39.1905C38.9967 96.3285 38.8037 96.3031 38.6161 96.2544C38.4371 96.2087 38.2686 96.1286 38.1202 96.0186C37.9788 95.9094 37.8777 95.7562 37.833 95.5832C37.7665 95.299 37.6969 94.9392 37.6213 94.5008C37.5458 94.0624 37.4762 93.5937 37.4097 93.119C37.3432 92.6443 37.2767 92.1515 37.2102 91.6617C37.1436 91.1719 37.0862 90.7244 37.0378 90.3193C36.9894 89.9141 36.9411 89.5755 36.8987 89.3124C36.8564 89.0494 36.8383 88.8952 36.8383 88.8619C36.5359 88.8952 36.1791 88.9406 35.7558 89.001C35.3326 89.0615 34.9123 89.122 34.4981 89.1855L33.3794 89.3729C33.1615 89.407 32.9455 89.4525 32.7324 89.509C32.6477 89.8113 32.5449 90.2527 32.43 90.8423C32.3151 91.4319 32.1821 92.0245 32.0551 92.6201C31.9281 93.2158 31.8193 93.754 31.7195 94.2256C31.6197 94.6973 31.5623 94.9603 31.5471 95.0087C31.5326 95.0748 31.4929 95.1325 31.4364 95.1698C31.38 95.2071 31.3112 95.2209 31.2448 95.2083C31.0684 95.2033 30.8964 95.1522 30.7459 95.0601C30.5626 94.9495 30.409 94.7959 30.2984 94.6126C30.1706 94.3859 30.1307 94.1201 30.1866 93.8658C30.237 93.5816 30.3035 93.2581 30.3861 92.8953C30.4708 92.5294 30.5554 92.1575 30.6461 91.7736C30.7368 91.3896 30.8306 91.0237 30.9213 90.667C31.012 90.3102 31.0845 89.9988 31.1329 89.7327C30.9873 89.7679 30.8359 89.773 30.6883 89.7475C30.5406 89.722 30.3997 89.6666 30.2742 89.5846C30.1094 89.4457 30.0017 89.2508 29.9719 89.0373C29.9388 88.8301 29.947 88.6184 29.9961 88.4145C30.0265 88.2633 30.086 88.1195 30.1714 87.9912L30.2833 87.8793C30.3279 87.8388 30.3864 87.8171 30.4466 87.8188L30.8306 87.7916C31.0543 87.7765 31.3234 87.7584 31.6409 87.7432C31.6892 87.6102 31.8102 87.2353 32.0007 86.6215C32.1911 86.0078 32.4179 85.2791 32.684 84.4325C32.95 83.5859 33.2282 82.688 33.5185 81.7325C33.8087 80.7771 34.0808 79.8882 34.3409 79.0598C34.6009 78.2313 34.8125 77.5268 34.9879 76.9433C35.1632 76.3598 35.263 76.0363 35.2902 75.9607C35.3344 75.8052 35.436 75.6723 35.5744 75.5888C35.6976 75.522 35.8337 75.4827 35.9735 75.4739C36.1126 75.4665 36.2518 75.4839 36.3847 75.5253C36.4975 75.5579 36.6061 75.6036 36.7083 75.6614C37.1393 75.8462 37.4915 76.177 37.703 76.5956C37.8941 77.0231 38.0038 77.4824 38.0265 77.9501C38.0265 78.2525 38.0779 78.6425 38.1263 79.1323C38.1746 79.6221 38.2381 80.1543 38.3137 80.7257C38.3893 81.2972 38.4619 81.8746 38.5375 82.4552C38.6131 83.0357 38.6826 83.5617 38.7491 84.0364C38.8156 84.5111 38.8731 84.9012 38.9214 85.2186C38.9698 85.5361 38.997 85.6994 38.997 85.7145C39.0454 85.9473 39.0877 86.1226 39.121 86.2375C39.1412 86.3345 39.1934 86.4218 39.2692 86.4855C39.3497 86.5422 39.4458 86.5728 39.5443 86.5732C39.7184 86.5857 39.8932 86.5857 40.0674 86.5732H40.8172C41.0636 86.576 41.2996 86.6734 41.4763 86.8453C41.5529 86.9236 41.6237 87.0075 41.688 87.0962C41.749 87.1976 41.791 87.3093 41.8119 87.4258ZM36.3878 87.1234C36.4225 87.1186 36.4559 87.107 36.486 87.0891C36.5161 87.0712 36.5424 87.0475 36.5632 87.0193C36.5841 86.9912 36.5991 86.9591 36.6074 86.9251C36.6157 86.891 36.6171 86.8557 36.6115 86.8211C36.594 86.7271 36.5819 86.6322 36.5752 86.5369C36.567 86.4485 36.5539 86.3607 36.5359 86.2738C36.4875 86.0108 36.4271 85.5694 36.3605 84.9556C36.294 84.3418 36.2245 83.6918 36.1519 83.0024C36.0794 82.313 36.0008 81.6539 35.9282 81.025C35.8556 80.3961 35.78 79.9275 35.7135 79.6312C35.6319 79.8459 35.523 80.1603 35.39 80.5745L34.9425 81.9714C34.7762 82.4854 34.613 83.0236 34.4467 83.5859C34.2804 84.1483 34.1232 84.6956 33.972 85.2156C33.8208 85.7356 33.6908 86.2134 33.5759 86.6366C33.461 87.0599 33.3764 87.3865 33.325 87.6193C33.4761 87.6011 33.6757 87.5739 33.9297 87.5316C34.1836 87.4893 34.4436 87.45 34.7248 87.4076C35.006 87.3653 35.2993 87.32 35.5956 87.2686C35.8919 87.2172 36.1549 87.1778 36.3878 87.1265V87.1234Z" fill="white"/>
<path d="M51.8409 84.0697C51.8686 85.1402 51.7382 86.2089 51.4539 87.2414C51.1573 88.3323 50.7521 89.3908 50.2445 90.4009C49.75 91.4038 49.1629 92.3584 48.4909 93.2521C47.8793 94.0736 47.1876 94.8322 46.4258 95.5167C46.21 95.721 45.9563 95.8812 45.679 95.9883C45.4233 96.088 45.1395 96.088 44.8838 95.9883C44.6142 95.886 44.3683 95.7296 44.1612 95.5288C43.9379 95.3076 43.7674 95.0389 43.6624 94.7427C43.6472 94.661 43.6261 94.2438 43.6019 93.4879C43.5777 92.732 43.5596 91.8069 43.5505 90.7123C43.5414 89.6178 43.5354 88.4387 43.5263 87.1809C43.5172 85.9231 43.5082 84.744 43.5021 83.6585C43.4961 82.5731 43.5021 81.663 43.5021 80.9374V79.7703C43.4356 79.605 43.3026 79.5506 43.103 79.607C42.9035 79.6645 42.7553 79.7129 42.6555 79.7461C42.5558 79.7794 42.4257 79.725 42.3199 79.5829C42.2073 79.4328 42.1223 79.2639 42.069 79.084C42.0129 78.9165 42.0004 78.7375 42.0327 78.5639C42.0486 78.4877 42.0887 78.4186 42.147 78.3668C42.2052 78.3151 42.2786 78.2835 42.3562 78.2767L43.8982 78.1527L45.1439 78.053L46.1144 77.9774C46.7962 77.9333 47.4803 78.0174 48.1311 78.2253C48.6801 78.4069 49.1921 78.6854 49.6428 79.0477C50.0576 79.3878 50.4104 79.7969 50.6859 80.2571C50.9526 80.6955 51.1773 81.1582 51.3572 81.6388C51.5244 82.0735 51.646 82.5245 51.72 82.9843C51.7835 83.4046 51.8228 83.7704 51.8409 84.0697ZM50.1478 83.3713C50.1483 83.0133 50.124 82.6556 50.0752 82.301C50.0198 81.9358 49.9276 81.5772 49.8001 81.2307C49.6231 80.7787 49.3211 80.3864 48.9293 80.0999C48.5635 79.831 48.1545 79.6265 47.7199 79.4952C47.3358 79.3772 46.9389 79.3061 46.5377 79.2835C46.2678 79.2678 45.9973 79.2678 45.7274 79.2835C45.7274 79.5345 45.7274 79.982 45.7516 80.629C45.7758 81.276 45.7848 82.0228 45.803 82.8694C45.8211 83.716 45.8332 84.614 45.8423 85.5694C45.8514 86.5248 45.8604 87.4319 45.8786 88.2905C45.8967 89.1492 45.9058 89.9111 45.9149 90.5672C45.9239 91.2233 45.936 91.6738 45.9511 91.9217C46.4704 91.5615 46.9287 91.1205 47.3087 90.6156C48.4002 89.2494 49.2212 87.6876 49.7275 86.0138C49.9955 85.1602 50.1371 84.272 50.1478 83.3773V83.3713Z" fill="white"/>
<path d="M56.7208 87.456C56.8799 87.4066 57.0414 87.3652 57.2046 87.332C57.4472 87.2774 57.6924 87.235 57.9393 87.2051C58.2054 87.1718 58.4775 87.1476 58.7617 87.1325C59.0017 87.1133 59.2431 87.1214 59.4813 87.1567C59.7432 87.1721 59.989 87.288 60.1676 87.4802C60.2469 87.5764 60.3044 87.6887 60.3363 87.8092C60.3681 87.9298 60.3735 88.0558 60.3521 88.1786C60.3384 88.3354 60.3049 88.4899 60.2523 88.6382C60.2449 88.6698 60.2309 88.6994 60.2111 88.7251C60.1913 88.7508 60.1663 88.772 60.1376 88.7872C60.1089 88.8024 60.0774 88.8112 60.045 88.8132C60.0126 88.8151 59.9802 88.8101 59.9499 88.7984C59.6773 88.7633 59.4022 88.7512 59.1275 88.7622C58.807 88.7712 58.4871 88.7964 58.1691 88.8377C57.8633 88.8751 57.5603 88.9327 57.262 89.0101C57.0293 89.067 56.8001 89.1377 56.5757 89.2217C56.5757 89.3699 56.5757 89.6359 56.5515 90.0169C56.5273 90.3979 56.5183 90.8302 56.5031 91.314C56.488 91.7978 56.4759 92.2876 56.4759 92.7925C56.4759 93.2974 56.4941 93.757 56.5273 94.1621C56.5478 94.4894 56.5974 94.8142 56.6755 95.1327C56.742 95.3715 56.8508 95.4683 56.999 95.4199L57.906 95.181L59.1154 94.8575C59.5206 94.7517 59.8895 94.667 60.222 94.6096C60.5546 94.5522 60.7542 94.5552 60.8267 94.6096C60.9805 94.7222 61.0973 94.878 61.1623 95.0571C61.2017 95.2083 61.25 95.3987 61.2984 95.6315C61.3831 95.9944 61.2742 96.2181 60.9749 96.3028L60.4155 96.4267C60.1132 96.4932 59.7383 96.5688 59.3059 96.6505L57.8879 96.9256L56.4215 97.2098C55.9559 97.3005 55.5447 97.3852 55.1879 97.4608L54.429 97.621C54.3135 97.6627 54.1889 97.6721 54.0684 97.6481C53.948 97.6241 53.8364 97.5677 53.7457 97.485C53.5941 97.2965 53.5025 97.0669 53.4827 96.8258C53.436 96.6779 53.4479 96.5177 53.5159 96.3783C53.6473 96.27 53.8066 96.2008 53.9755 96.1788L54.1871 96.1425L54.3746 96.1062C54.4084 95.9178 54.4206 95.726 54.4109 95.5348C54.4109 95.1508 54.429 94.655 54.4381 94.0412C54.4472 93.4274 54.4381 92.7199 54.4381 91.9247V89.4606C54.4381 88.614 54.4381 87.7705 54.4381 86.9239C54.4381 86.0773 54.4381 85.3003 54.4381 84.5958V81.7476C54.2537 81.796 54.1055 81.8293 53.9876 81.8474C53.8935 81.8627 53.7975 81.8627 53.7034 81.8474C53.627 81.8297 53.5575 81.7897 53.5038 81.7325C53.4346 81.6606 53.3718 81.5827 53.3164 81.4997C53.2227 81.3824 53.1398 81.2569 53.0684 81.1248C52.988 80.9852 52.9289 80.8344 52.8931 80.6773C52.8616 80.5427 52.8534 80.4036 52.8689 80.2661C52.8733 80.2028 52.894 80.1417 52.929 80.0888C52.964 80.0358 53.012 79.9928 53.0684 79.9638C53.3008 79.845 53.5478 79.7575 53.8032 79.7038C54.1569 79.6131 54.5772 79.5224 55.0579 79.4286C55.5386 79.3349 56.0526 79.2472 56.5999 79.1565C57.1471 79.0658 57.6793 78.9811 58.1963 78.9086C58.7133 78.836 59.1789 78.7695 59.5992 78.7211L60.6091 78.5972C60.8287 78.5596 61.054 78.572 61.2682 78.6334C61.4209 78.6871 61.5488 78.7946 61.628 78.9358C61.723 79.1022 61.7904 79.2829 61.8275 79.4709C61.8789 79.6856 61.9424 79.9275 62.0271 80.1905C62.0442 80.2373 62.0435 80.2888 62.0251 80.3351C62.0067 80.3814 61.9719 80.4193 61.9273 80.4415C61.8134 80.5132 61.6874 80.5634 61.5554 80.5896C61.4042 80.6229 61.2531 80.6531 61.117 80.6773C61.0232 80.696 60.9282 80.7081 60.8328 80.7136C60.2523 80.7983 59.6657 80.8678 59.0792 80.9253C58.4926 80.9827 57.903 81.0553 57.3225 81.1369C57.1377 81.1389 56.9569 81.1912 56.7994 81.2881C56.7108 81.4461 56.6758 81.6285 56.6997 81.8081V83.2261C56.6997 83.8097 56.6997 84.3932 56.6997 84.9828C56.6997 85.5724 56.6997 86.0985 56.6997 86.5611C56.6787 86.8594 56.6858 87.159 56.7208 87.456Z" fill="white"/>
<path d="M72.1165 60.4501C72.1899 60.3974 72.2519 60.3306 72.2991 60.2535C72.3462 60.1765 72.3775 60.0908 72.391 60.0015C72.4045 59.9122 72.4 59.8211 72.3778 59.7335C72.3556 59.646 72.3161 59.5637 72.2616 59.4917C71.279 58.2611 70.3206 57.0154 69.2956 55.8212C68.0862 54.4757 66.9403 53.0728 65.6674 51.7969L63.7807 49.8497L61.8064 47.9903C61.1553 47.3614 60.4831 46.7567 59.7897 46.1762C59.1034 45.5896 58.4291 44.9849 57.7307 44.4135C54.9312 42.1257 51.9884 40.0191 48.9202 38.1065C45.8317 36.1495 42.5649 34.4892 39.1634 33.1479L38.4317 32.8668C38.4236 32.8632 38.4149 32.8613 38.406 32.8613C38.3972 32.8613 38.3884 32.8632 38.3803 32.8668L37.7575 33.287C36.3969 34.1941 35.1603 35.1374 33.9146 36.1231C32.6689 37.1087 31.4958 38.1337 30.3167 39.198C27.9514 41.3224 25.7893 43.6626 23.8585 46.1883C23.7017 46.4424 23.6445 46.7455 23.6979 47.0393C23.7512 47.333 23.9114 47.5967 24.1474 47.7794C24.3835 47.9622 24.6788 48.0512 24.9766 48.0293C25.2744 48.0074 25.5535 47.8761 25.7602 47.6607C27.6846 45.3514 29.8193 43.2259 32.1368 41.3114C33.2877 40.3298 34.478 39.3945 35.7076 38.5056C36.6781 37.8011 37.6849 37.1178 38.6797 36.4829C38.6886 36.4783 38.6984 36.476 38.7084 36.476C38.7184 36.476 38.7282 36.4783 38.7371 36.4829C41.5821 37.8221 44.3124 39.3926 46.9005 41.1784C49.7442 43.1211 52.4589 45.246 55.0277 47.5398C55.6717 48.1112 56.2855 48.7159 56.9144 49.2995C57.5433 49.883 58.1661 50.4817 58.7557 51.1136L60.5547 52.964L62.266 54.8929C63.4361 56.1537 64.464 57.5385 65.5585 58.8628C66.4112 59.9482 67.2124 61.082 68.0257 62.1886C68.103 62.2952 68.2006 62.3854 68.3129 62.4542C68.4251 62.523 68.5498 62.569 68.6799 62.5895C68.8099 62.61 68.9427 62.6046 69.0707 62.5737C69.1986 62.5428 69.3193 62.4869 69.4256 62.4094L72.1165 60.4501Z" fill="white"/>
</svg>
