<svg width="31" height="28" viewBox="0 0 31 28" fill="none" xmlns="http://www.w3.org/2000/svg">
<path d="M27.3687 0H2.83127C1.27001 0 0 1.52305 0 3.39538V23.7675C0 25.6398 1.27001 27.1629 2.83127 27.1629H27.3687C28.93 27.1629 30.2 25.6398 30.2 23.7675V3.39538C30.2 1.52305 28.93 0 27.3687 0ZM27.3687 2.26356C27.497 2.26356 27.6189 2.29546 27.7305 2.35118L15.1 15.4792L2.46948 2.35118C2.581 2.29554 2.70298 2.26356 2.83121 2.26356H27.3687ZM27.3687 24.8992H2.83127C2.31056 24.8992 1.88749 24.3919 1.88749 23.7674V4.74265L14.4816 17.8322C14.6595 18.0168 14.8797 18.1085 15.1 18.1085C15.3203 18.1085 15.5405 18.0168 15.7184 17.8322L28.3125 4.74265V23.7675C28.3124 24.3919 27.8894 24.8992 27.3687 24.8992Z" fill="#1E1E1E"/>
</svg>
