<svg width="31" height="38" viewBox="0 0 31 38" fill="none" xmlns="http://www.w3.org/2000/svg">
<path d="M15.1 0C11.0952 0 7.25449 1.58988 4.42269 4.4199C1.59089 7.24991 0 11.0882 0 15.0905C0 23.1999 13.9761 36.7582 14.5706 37.4775C14.635 37.5555 14.7159 37.6183 14.8074 37.6614C14.8989 37.7045 14.9988 37.7269 15.1 37.7269C15.2012 37.7269 15.3011 37.7045 15.3926 37.6614C15.4841 37.6183 15.565 37.5555 15.6294 37.4775C16.2239 36.7582 30.2 23.1999 30.2 15.0905C30.2 11.0882 28.6091 7.24991 25.7773 4.4199C22.9455 1.58988 19.1048 0 15.1 0V0ZM15.1 35.9505C12.5176 32.7283 1.37273 21.864 1.37273 15.0905C1.37273 11.4521 2.81899 7.96269 5.39335 5.38995C7.96771 2.81721 11.4593 1.37186 15.1 1.37186C18.7407 1.37186 22.2323 2.81721 24.8066 5.38995C27.381 7.96269 28.8273 11.4521 28.8273 15.0905C28.8273 21.864 17.6824 32.7275 15.1 35.9505Z" fill="#1E1E1E"/>
<path d="M24.4414 13.7753L15.5187 6.91596C15.3987 6.82363 15.2515 6.77356 15.1 6.77356C14.9486 6.77356 14.8014 6.82363 14.6814 6.91596L5.75864 13.7753C5.64504 13.8626 5.56167 13.9833 5.52021 14.1205C5.47875 14.2576 5.48128 14.4042 5.52746 14.5398C5.57364 14.6755 5.66114 14.7932 5.77769 14.8766C5.89424 14.96 6.03398 15.0048 6.17732 15.0048H8.23641V22.55C8.23641 22.732 8.30872 22.9064 8.43744 23.0351C8.56616 23.1637 8.74074 23.236 8.92277 23.236H21.2773C21.4593 23.236 21.6339 23.1637 21.7626 23.0351C21.8914 22.9064 21.9637 22.732 21.9637 22.55V15.0048H24.0228C24.1661 15.0048 24.3058 14.96 24.4224 14.8766C24.5389 14.7932 24.6264 14.6755 24.6726 14.5398C24.7188 14.4042 24.7213 14.2576 24.6799 14.1205C24.6384 13.9833 24.555 13.8626 24.4414 13.7753ZM16.4728 21.8641H13.7273V17.7485H16.4728V21.8641ZM21.2773 13.6329C21.0953 13.6329 20.9207 13.7052 20.792 13.8338C20.6633 13.9625 20.5909 14.1369 20.5909 14.3189V21.8641H17.8455V17.0626C17.8455 16.8807 17.7732 16.7062 17.6445 16.5776C17.5157 16.4489 17.3412 16.3767 17.1591 16.3767H13.041C12.8589 16.3767 12.6843 16.4489 12.5556 16.5776C12.4269 16.7062 12.3546 16.8807 12.3546 17.0626V21.8641H9.60913V14.3189C9.60913 14.1369 9.53682 13.9625 9.4081 13.8338C9.27939 13.7052 9.10481 13.6329 8.92277 13.6329H8.19523L15.1 8.32554L22.0049 13.6329H21.2773Z" fill="#1E1E1E"/>
</svg>
